<mxfile host="app.diagrams.net" modified="2023-05-09T13:02:46.350Z" agent="Mozilla/5.0 (Macintosh; Intel Mac OS X 10.15; rv:109.0) Gecko/20100101 Firefox/112.0" etag="Jpyr00H0Oy_qVUxQ85FX" version="21.2.9" type="google">
  <diagram name="Pagina-1" id="rHE4AhkbWZYaESagKAF_">
    <mxGraphModel grid="1" page="1" gridSize="10" guides="1" tooltips="1" connect="1" arrows="1" fold="1" pageScale="1" pageWidth="827" pageHeight="1169" math="0" shadow="0">
      <root>
        <mxCell id="0" />
        <mxCell id="1" parent="0" />
        <mxCell id="zyUJg0uRH5EwXGAba9ed-2" value="Libro implements Comparable(T)" style="swimlane;fontStyle=1;align=center;verticalAlign=top;childLayout=stackLayout;horizontal=1;startSize=26;horizontalStack=0;resizeParent=1;resizeParentMax=0;resizeLast=0;collapsible=1;marginBottom=0;whiteSpace=wrap;html=1;" vertex="1" parent="1">
          <mxGeometry x="120" y="40" width="280" height="210" as="geometry" />
        </mxCell>
        <mxCell id="zyUJg0uRH5EwXGAba9ed-3" value="&lt;div&gt;- titolo: String&lt;/div&gt;&lt;div&gt;- autore:String&lt;/div&gt;&lt;div&gt;- editore:String&lt;br&gt;&lt;/div&gt;" style="text;strokeColor=none;fillColor=none;align=left;verticalAlign=top;spacingLeft=4;spacingRight=4;overflow=hidden;rotatable=0;points=[[0,0.5],[1,0.5]];portConstraint=eastwest;whiteSpace=wrap;html=1;" vertex="1" parent="zyUJg0uRH5EwXGAba9ed-2">
          <mxGeometry y="26" width="280" height="74" as="geometry" />
        </mxCell>
        <mxCell id="zyUJg0uRH5EwXGAba9ed-4" value="" style="line;strokeWidth=1;fillColor=none;align=left;verticalAlign=middle;spacingTop=-1;spacingLeft=3;spacingRight=3;rotatable=0;labelPosition=right;points=[];portConstraint=eastwest;strokeColor=inherit;" vertex="1" parent="zyUJg0uRH5EwXGAba9ed-2">
          <mxGeometry y="100" width="280" height="8" as="geometry" />
        </mxCell>
        <mxCell id="zyUJg0uRH5EwXGAba9ed-5" value="&lt;p style=&quot;border-color: var(--border-color); margin: 0px 0px 0px 4px;&quot;&gt;+ Libro(titolo:String,autore:String,editore:String)&lt;/p&gt;&lt;p style=&quot;border-color: var(--border-color); margin: 0px 0px 0px 4px;&quot;&gt;+ toString(): String&lt;/p&gt;&lt;div&gt;&amp;nbsp;+get*():String&lt;br&gt;&lt;/div&gt;" style="text;strokeColor=none;fillColor=none;align=left;verticalAlign=top;spacingLeft=4;spacingRight=4;overflow=hidden;rotatable=0;points=[[0,0.5],[1,0.5]];portConstraint=eastwest;whiteSpace=wrap;html=1;" vertex="1" parent="zyUJg0uRH5EwXGAba9ed-2">
          <mxGeometry y="108" width="280" height="102" as="geometry" />
        </mxCell>
        <mxCell id="zyUJg0uRH5EwXGAba9ed-6" value="Persona" style="swimlane;fontStyle=1;align=center;verticalAlign=top;childLayout=stackLayout;horizontal=1;startSize=26;horizontalStack=0;resizeParent=1;resizeParentMax=0;resizeLast=0;collapsible=1;marginBottom=0;whiteSpace=wrap;html=1;" vertex="1" parent="1">
          <mxGeometry x="120" y="260" width="300" height="190" as="geometry" />
        </mxCell>
        <mxCell id="zyUJg0uRH5EwXGAba9ed-7" value="&lt;div&gt;- nome: String&lt;/div&gt;&lt;div&gt;- cognome:String&lt;/div&gt;&lt;div&gt;- dataNascita:LocalDate&lt;br&gt;&lt;/div&gt;" style="text;strokeColor=none;fillColor=none;align=left;verticalAlign=top;spacingLeft=4;spacingRight=4;overflow=hidden;rotatable=0;points=[[0,0.5],[1,0.5]];portConstraint=eastwest;whiteSpace=wrap;html=1;" vertex="1" parent="zyUJg0uRH5EwXGAba9ed-6">
          <mxGeometry y="26" width="300" height="74" as="geometry" />
        </mxCell>
        <mxCell id="zyUJg0uRH5EwXGAba9ed-8" value="" style="line;strokeWidth=1;fillColor=none;align=left;verticalAlign=middle;spacingTop=-1;spacingLeft=3;spacingRight=3;rotatable=0;labelPosition=right;points=[];portConstraint=eastwest;strokeColor=inherit;" vertex="1" parent="zyUJg0uRH5EwXGAba9ed-6">
          <mxGeometry y="100" width="300" height="8" as="geometry" />
        </mxCell>
        <mxCell id="zyUJg0uRH5EwXGAba9ed-9" value="&lt;p style=&quot;border-color: var(--border-color); margin: 0px 0px 0px 4px;&quot;&gt;+Persona(nome:String,cognome:String,&lt;/p&gt;&lt;p style=&quot;border-color: var(--border-color); margin: 0px 0px 0px 4px;&quot;&gt;dataNascita:LocalDate)&lt;/p&gt;&lt;p style=&quot;border-color: var(--border-color); margin: 0px 0px 0px 4px;&quot;&gt;+get*():*&lt;br&gt;&lt;/p&gt;&lt;p style=&quot;border-color: var(--border-color); margin: 0px 0px 0px 4px;&quot;&gt;+ toString(): String&lt;/p&gt;" style="text;strokeColor=none;fillColor=none;align=left;verticalAlign=top;spacingLeft=4;spacingRight=4;overflow=hidden;rotatable=0;points=[[0,0.5],[1,0.5]];portConstraint=eastwest;whiteSpace=wrap;html=1;" vertex="1" parent="zyUJg0uRH5EwXGAba9ed-6">
          <mxGeometry y="108" width="300" height="82" as="geometry" />
        </mxCell>
        <mxCell id="zyUJg0uRH5EwXGAba9ed-10" value="Carta" style="swimlane;fontStyle=1;align=center;verticalAlign=top;childLayout=stackLayout;horizontal=1;startSize=26;horizontalStack=0;resizeParent=1;resizeParentMax=0;resizeLast=0;collapsible=1;marginBottom=0;whiteSpace=wrap;html=1;" vertex="1" parent="1">
          <mxGeometry x="20" y="480" width="350" height="190" as="geometry" />
        </mxCell>
        <mxCell id="zyUJg0uRH5EwXGAba9ed-11" value="&lt;div&gt;- valore: int&lt;/div&gt;&lt;div&gt;- seme:String&lt;/div&gt;" style="text;strokeColor=none;fillColor=none;align=left;verticalAlign=top;spacingLeft=4;spacingRight=4;overflow=hidden;rotatable=0;points=[[0,0.5],[1,0.5]];portConstraint=eastwest;whiteSpace=wrap;html=1;" vertex="1" parent="zyUJg0uRH5EwXGAba9ed-10">
          <mxGeometry y="26" width="350" height="74" as="geometry" />
        </mxCell>
        <mxCell id="zyUJg0uRH5EwXGAba9ed-12" value="" style="line;strokeWidth=1;fillColor=none;align=left;verticalAlign=middle;spacingTop=-1;spacingLeft=3;spacingRight=3;rotatable=0;labelPosition=right;points=[];portConstraint=eastwest;strokeColor=inherit;" vertex="1" parent="zyUJg0uRH5EwXGAba9ed-10">
          <mxGeometry y="100" width="350" height="8" as="geometry" />
        </mxCell>
        <mxCell id="zyUJg0uRH5EwXGAba9ed-13" value="&lt;p style=&quot;border-color: var(--border-color); margin: 0px 0px 0px 4px;&quot;&gt;+Carte(valore:int,seme:String)&lt;/p&gt;&lt;p style=&quot;border-color: var(--border-color); margin: 0px 0px 0px 4px;&quot;&gt;+ toString(): String&lt;/p&gt;" style="text;strokeColor=none;fillColor=none;align=left;verticalAlign=top;spacingLeft=4;spacingRight=4;overflow=hidden;rotatable=0;points=[[0,0.5],[1,0.5]];portConstraint=eastwest;whiteSpace=wrap;html=1;" vertex="1" parent="zyUJg0uRH5EwXGAba9ed-10">
          <mxGeometry y="108" width="350" height="82" as="geometry" />
        </mxCell>
        <mxCell id="zyUJg0uRH5EwXGAba9ed-18" value="Gestione&amp;lt;T extends Comparable&amp;gt;" style="swimlane;fontStyle=1;align=center;verticalAlign=top;childLayout=stackLayout;horizontal=1;startSize=26;horizontalStack=0;resizeParent=1;resizeParentMax=0;resizeLast=0;collapsible=1;marginBottom=0;whiteSpace=wrap;html=1;" vertex="1" parent="1">
          <mxGeometry x="500" y="40" width="210" height="114" as="geometry" />
        </mxCell>
        <mxCell id="zyUJg0uRH5EwXGAba9ed-20" value="" style="line;strokeWidth=1;fillColor=none;align=left;verticalAlign=middle;spacingTop=-1;spacingLeft=3;spacingRight=3;rotatable=0;labelPosition=right;points=[];portConstraint=eastwest;strokeColor=inherit;" vertex="1" parent="zyUJg0uRH5EwXGAba9ed-18">
          <mxGeometry y="26" width="210" height="8" as="geometry" />
        </mxCell>
        <mxCell id="zyUJg0uRH5EwXGAba9ed-21" value="&lt;div&gt;+ inserisci(T): void&lt;/div&gt;&lt;div&gt;+ cancella(T): void&lt;/div&gt;&lt;div&gt;+ ordina(T): void&lt;/div&gt;&lt;div&gt;+ ricerca(T[]): void&lt;/div&gt;" style="text;strokeColor=none;fillColor=none;align=left;verticalAlign=top;spacingLeft=4;spacingRight=4;overflow=hidden;rotatable=0;points=[[0,0.5],[1,0.5]];portConstraint=eastwest;whiteSpace=wrap;html=1;" vertex="1" parent="zyUJg0uRH5EwXGAba9ed-18">
          <mxGeometry y="34" width="210" height="80" as="geometry" />
        </mxCell>
        <mxCell id="zyUJg0uRH5EwXGAba9ed-22" value="GestioneImplem &amp;lt;T&amp;gt; " style="swimlane;fontStyle=1;align=center;verticalAlign=top;childLayout=stackLayout;horizontal=1;startSize=26;horizontalStack=0;resizeParent=1;resizeParentMax=0;resizeLast=0;collapsible=1;marginBottom=0;whiteSpace=wrap;html=1;" vertex="1" parent="1">
          <mxGeometry x="510" y="230" width="220" height="200" as="geometry" />
        </mxCell>
        <mxCell id="zyUJg0uRH5EwXGAba9ed-23" value="&lt;div&gt;- items:Lista T[]&lt;/div&gt;" style="text;strokeColor=none;fillColor=none;align=left;verticalAlign=top;spacingLeft=4;spacingRight=4;overflow=hidden;rotatable=0;points=[[0,0.5],[1,0.5]];portConstraint=eastwest;whiteSpace=wrap;html=1;" vertex="1" parent="zyUJg0uRH5EwXGAba9ed-22">
          <mxGeometry y="26" width="220" height="74" as="geometry" />
        </mxCell>
        <mxCell id="zyUJg0uRH5EwXGAba9ed-24" value="" style="line;strokeWidth=1;fillColor=none;align=left;verticalAlign=middle;spacingTop=-1;spacingLeft=3;spacingRight=3;rotatable=0;labelPosition=right;points=[];portConstraint=eastwest;strokeColor=inherit;" vertex="1" parent="zyUJg0uRH5EwXGAba9ed-22">
          <mxGeometry y="100" width="220" height="8" as="geometry" />
        </mxCell>
        <mxCell id="zyUJg0uRH5EwXGAba9ed-25" value="&lt;div&gt;+ inserisci(T): void&lt;/div&gt;&lt;div&gt;+ cancella(T): void&lt;/div&gt;&lt;div&gt;+ ordina(T): void&lt;/div&gt;&lt;div&gt;+ ricerca(T[]): void&lt;/div&gt;" style="text;strokeColor=none;fillColor=none;align=left;verticalAlign=top;spacingLeft=4;spacingRight=4;overflow=hidden;rotatable=0;points=[[0,0.5],[1,0.5]];portConstraint=eastwest;whiteSpace=wrap;html=1;" vertex="1" parent="zyUJg0uRH5EwXGAba9ed-22">
          <mxGeometry y="108" width="220" height="92" as="geometry" />
        </mxCell>
        <mxCell id="A8I-VBR6i6BRgt-1qSLQ-1" value="Bootstrap" style="swimlane;fontStyle=1;align=center;verticalAlign=top;childLayout=stackLayout;horizontal=1;startSize=26;horizontalStack=0;resizeParent=1;resizeParentMax=0;resizeLast=0;collapsible=1;marginBottom=0;whiteSpace=wrap;html=1;" vertex="1" parent="1">
          <mxGeometry x="440" y="480" width="350" height="190" as="geometry" />
        </mxCell>
        <mxCell id="A8I-VBR6i6BRgt-1qSLQ-2" value="&lt;div&gt;gestioneLibri: gestione&amp;lt;Libro&amp;gt;&lt;/div&gt;&lt;div&gt;gestionePersone: gestione&amp;lt;Persone&amp;gt;&lt;/div&gt;&lt;div&gt;gestioneCarta: gestione&amp;lt;Carta&amp;gt;&lt;/div&gt;&lt;div&gt;&lt;br&gt;&lt;/div&gt;" style="text;strokeColor=none;fillColor=none;align=left;verticalAlign=top;spacingLeft=4;spacingRight=4;overflow=hidden;rotatable=0;points=[[0,0.5],[1,0.5]];portConstraint=eastwest;whiteSpace=wrap;html=1;" vertex="1" parent="A8I-VBR6i6BRgt-1qSLQ-1">
          <mxGeometry y="26" width="350" height="74" as="geometry" />
        </mxCell>
        <mxCell id="A8I-VBR6i6BRgt-1qSLQ-3" value="" style="line;strokeWidth=1;fillColor=none;align=left;verticalAlign=middle;spacingTop=-1;spacingLeft=3;spacingRight=3;rotatable=0;labelPosition=right;points=[];portConstraint=eastwest;strokeColor=inherit;" vertex="1" parent="A8I-VBR6i6BRgt-1qSLQ-1">
          <mxGeometry y="100" width="350" height="8" as="geometry" />
        </mxCell>
        <mxCell id="A8I-VBR6i6BRgt-1qSLQ-4" value="&lt;p style=&quot;border-color: var(--border-color); margin: 0px 0px 0px 4px;&quot;&gt;+ static main(....)&lt;/p&gt;&lt;p style=&quot;border-color: var(--border-color); margin: 0px 0px 0px 4px;&quot;&gt;-creaLibro():Libro&lt;br&gt;&lt;/p&gt;&lt;p style=&quot;border-color: var(--border-color); margin: 0px 0px 0px 4px;&quot;&gt;-creaPersona():Persona&lt;/p&gt;&lt;p style=&quot;border-color: var(--border-color); margin: 0px 0px 0px 4px;&quot;&gt;-creaCarta():Carta&lt;/p&gt;&lt;p style=&quot;border-color: var(--border-color); margin: 0px 0px 0px 4px;&quot;&gt;-visualizzaItem():void&lt;br&gt;&lt;/p&gt;" style="text;strokeColor=none;fillColor=none;align=left;verticalAlign=top;spacingLeft=4;spacingRight=4;overflow=hidden;rotatable=0;points=[[0,0.5],[1,0.5]];portConstraint=eastwest;whiteSpace=wrap;html=1;" vertex="1" parent="A8I-VBR6i6BRgt-1qSLQ-1">
          <mxGeometry y="108" width="350" height="82" as="geometry" />
        </mxCell>
      </root>
    </mxGraphModel>
  </diagram>
</mxfile>
